<svg width="50" height="50" viewBox="0 0 50 50" fill="none" xmlns="http://www.w3.org/2000/svg">
<g clip-path="url(#clip0_11_3)">
<path d="M24.888 4.72724C24.888 -8.78126 33.329 10.3672 29.9585 16.2165C33.335 10.3675 54.142 8.10349 42.441 14.8592C54.142 8.10349 41.779 25.0005 35.026 25.0005C41.779 25.0005 54.142 41.8882 42.441 35.1415C54.142 41.8972 33.335 39.6335 29.9585 33.7845C33.335 39.6335 24.888 58.7822 24.888 45.2737C24.888 58.7822 16.444 39.6335 19.8175 33.7845C16.441 39.6335 -4.366 41.8972 7.335 35.1415C-4.366 41.8972 7.997 25.0005 14.7527 25.0005C7.997 25.0005 -4.366 8.11249 7.335 14.8592C-4.366 8.10349 16.441 10.3675 19.8175 16.2165C16.444 10.3615 24.888 -8.78126 24.888 4.72724Z" fill="#CDC7F8"/>
</g>
<defs>
<clipPath id="clip0_11_3">
<rect width="50" height="50" fill="white"/>
</clipPath>
</defs>
</svg>
